<svg width="7050.000000000001" height="2543" xmlns="http://www.w3.org/2000/svg" preserveAspectRatio="xMidYMid meet">

 <g>
  <title>background</title>
  <rect fill="none" id="canvas_background" height="2545" width="7052" y="-1" x="-1"/>
 </g>
 <g>
  <title>Layer 1</title>
  <g fill="#929292" id="layer101">
   <path id="svg_1" d="m835.249756,2281.999756c-305,-43 -571,-232 -721,-512c-107,-199 -134,-489 -66,-723c91,-312.000061 357,-571.000061 668,-650.000061c183,-46 359,-42 531,12c91,28 255,109 263,129c2,7 -73,152 -168,323l-173,309.000061l-36,-27c-79,-63 -154,-81 -231,-58c-65,20 -111,58 -145,119c-24,44 -29,64 -29,123c0,59 5,79 29,123c81,146 246,172 375,60c31,-28 34,-28 46,-11c26,38 335,599 335,608c0,19 -126,89 -222,125c-130,48 -321,69 -456,50z"/>
   <path id="svg_2" d="m6136.25,2280.999756c-234,-27 -432,-118 -592,-273c-115,-112 -190,-227 -239,-373c-62,-180 -58,-445 8,-639.000061c56,-162 200,-348 357,-460c311,-224 767,-228 1088,-11c107,73 295,283 278,310c-4,6 -147,177 -320,379.000061c-172,203 -313,371 -313,373c0,7 73,-6 125,-22c63,-19 126,-55 176,-100l39,-35l9,23c16,44 201,655 201,665c0,6 -31,25 -68,42c-236,109 -494,151 -749,121zm60,-959c81,-93 150,-176 153,-184c4,-10 -6,-22 -27,-35c-108,-66 -255,-14 -321,112c-34,64 -31,156 6,225c16,28 32,52 35,52c4,0 73,-76 154,-170z"/>
   <path id="svg_3" d="m4243.25,1724.999756c0,-586 5,-649 61,-819.000061c52,-155 156,-299 284,-389c128,-91 242,-130 429,-147c73,-6 140,-9 149,-5c16,6 17,37 17,372c0,201 -2,365.000061 -5,365.000061c-3,0 -17,-7 -31,-16c-32,-22 -96,-21 -130,0c-59,39 -59,40 -62,629l-3,537l-354,0l-355,0l0,-527z"/>
  </g>
  <g fill="#94e443" id="layer102">
   <path id="svg_4" d="m2588.249756,2511.999756c-244,-49 -458,-164 -636,-341c-265,-264 -389,-572 -376,-939c9,-258.000061 71,-454.000061 207,-655.000061c192,-283 471,-471 804,-542c112,-25 380,-25 492,0c333,71 612,259 804,542c136,201 198,397 207,655.000061c6.000244,164 -9,283 -53,422c-116,369 -435,693 -805,818c-181,61 -455,78 -644,40zm121,-459c76,-56 722,-715 729,-744c18,-69 14,-73 -372,-459.000061c-209,-208 -381,-372 -397,-378c-49,-18 -79,-3 -160,79c-71,73 -76,82 -76,122l0,43l277,278l278,278.000061l-236,238c-300,302 -319,324 -319,361c0,49 18,76 97,145c87,78 116,84 179,37z"/>
  </g>
 </g>
</svg>