<!DOCTYPE svg PUBLIC "-//W3C//DTD SVG 20010904//EN" "http://www.w3.org/TR/2001/REC-SVG-20010904/DTD/svg10.dtd">
<svg version="1.0" xmlns="http://www.w3.org/2000/svg" width="840px" height="463px" viewBox="0 0 8400 4630" preserveAspectRatio="xMidYMid meet">
<g id="layer101" fill="#87db35" stroke="none">
 <path d="M2000 3298 c0 -1011 4 -1113 46 -1277 168 -647 887 -993 1516 -731 275 114 537 399 626 680 42 135 47 171 47 370 0 182 -2 202 -28 294 -66 236 -211 445 -420 599 -200 149 -413 217 -681 217 l-136 0 0 -426 c0 -400 1 -425 18 -420 136 41 239 23 330 -58 57 -52 86 -123 86 -216 1 -66 -4 -85 -32 -142 -54 -109 -135 -158 -261 -158 -102 1 -196 53 -238 135 -48 91 -47 69 -50 1108 l-4 977 -409 0 -410 0 0 -952z"/>
 <path d="M7514 3434 c-194 -32 -344 -111 -484 -253 -106 -108 -159 -195 -204 -337 -61 -188 -59 -148 -63 -1252 l-4 -1012 413 2 413 3 3 332 2 333 155 0 155 0 0 410 0 410 -156 0 -155 0 3 213 c3 188 5 216 23 251 34 67 61 80 180 84 l105 4 0 408 0 408 -31 6 c-54 10 -270 5 -355 -10z"/>
 <path d="M440 3021 l0 -418 53 -7 c79 -9 123 -24 157 -53 59 -49 79 -118 110 -368 38 -308 107 -481 260 -648 116 -127 283 -227 452 -271 118 -31 292 -50 371 -41 l57 7 0 414 0 414 -22 4 c-13 3 -43 7 -68 11 -64 8 -141 49 -167 87 -33 49 -51 134 -68 313 -9 90 -26 201 -40 253 -119 449 -496 722 -997 722 l-98 0 0 -419z"/>
 </g>
<g id="layer102" fill="#888a88" stroke="none">
 <path d="M2825 3310 c0 -520 1 -732 2 -472 2 259 2 685 0 945 -1 259 -2 47 -2 -473z"/>
 <path d="M5395 3469 c-439 -42 -833 -366 -968 -794 -38 -120 -50 -228 -44 -383 11 -300 118 -537 342 -757 220 -216 483 -325 785 -325 302 0 565 109 785 325 160 157 260 325 312 523 31 119 42 327 23 454 -45 308 -234 600 -503 776 -164 107 -322 163 -515 182 -107 10 -104 10 -217 -1z m11 -428 c46 -34 614 -605 638 -641 9 -13 16 -42 16 -64 0 -39 -8 -48 -327 -369 -193 -194 -342 -335 -362 -344 -51 -22 -82 -9 -155 67 -61 62 -66 72 -66 111 0 43 1 44 247 291 l247 248 -245 247 c-156 158 -248 257 -251 273 -9 52 10 88 82 150 84 71 114 77 176 31z"/>
 <path d="M663 3433 c4 -3 10 -3 14 0 3 4 0 7 -7 7 -7 0 -10 -3 -7 -7z"/>
 <path d="M3805 3220 c3 -5 8 -10 11 -10 3 0 2 5 -1 10 -3 6 -8 10 -11 10 -3 0 -2 -4 1 -10z"/>
 <path d="M1225 3210 c3 -5 8 -10 11 -10 3 0 2 5 -1 10 -3 6 -8 10 -11 10 -3 0 -2 -4 1 -10z"/>
 <path d="M3860 3176 c0 -2 8 -10 18 -17 15 -13 16 -12 3 4 -13 16 -21 21 -21 13z"/>
 <path d="M1345 3090 c3 -5 8 -10 11 -10 3 0 2 5 -1 10 -3 6 -8 10 -11 10 -3 0 -2 -4 1 -10z"/>
 <path d="M3960 3076 c0 -2 8 -10 18 -17 15 -13 16 -12 3 4 -13 16 -21 21 -21 13z"/>
 <path d="M4015 3010 c3 -5 8 -10 11 -10 3 0 2 5 -1 10 -3 6 -8 10 -11 10 -3 0 -2 -4 1 -10z"/>
 <path d="M4045 2970 c3 -5 8 -10 11 -10 3 0 2 5 -1 10 -3 6 -8 10 -11 10 -3 0 -2 -4 1 -10z"/>
 <path d="M1530 2730 c0 -7 3 -10 7 -7 3 4 3 10 0 14 -4 3 -7 0 -7 -7z"/>
 <path d="M1540 2690 c0 -7 3 -10 7 -7 3 4 3 10 0 14 -4 3 -7 0 -7 -7z"/>
 <path d="M4200 2650 c0 -7 3 -10 7 -7 3 4 3 10 0 14 -4 3 -7 0 -7 -7z"/>
 <path d="M4210 2610 c0 -7 3 -10 7 -7 3 4 3 10 0 14 -4 3 -7 0 -7 -7z"/>
 <path d="M1561 2584 c0 -11 3 -14 6 -6 3 7 2 16 -1 19 -3 4 -6 -2 -5 -13z"/>
 <path d="M4220 2570 c0 -7 3 -10 7 -7 3 4 3 10 0 14 -4 3 -7 0 -7 -7z"/>
 <path d="M1573 2495 c0 -22 2 -30 4 -17 2 12 2 30 0 40 -3 9 -5 -1 -4 -23z"/>
 <path d="M4231 2504 c0 -11 3 -14 6 -6 3 7 2 16 -1 19 -3 4 -6 -2 -5 -13z"/>
 <path d="M7591 2454 c0 -11 3 -14 6 -6 3 7 2 16 -1 19 -3 4 -6 -2 -5 -13z"/>
 <path d="M4240 2440 c0 -7 3 -10 7 -7 3 4 3 10 0 14 -4 3 -7 0 -7 -7z"/>
 <path d="M4244 2320 c0 -58 1 -81 3 -52 2 28 2 76 0 105 -2 28 -3 5 -3 -53z"/>
 <path d="M1580 2360 c0 -7 3 -10 7 -7 3 4 3 10 0 14 -4 3 -7 0 -7 -7z"/>
 <path d="M1590 2300 c0 -7 3 -10 7 -7 3 4 3 10 0 14 -4 3 -7 0 -7 -7z"/>
 <path d="M2830 2290 c0 -7 3 -10 7 -7 3 4 3 10 0 14 -4 3 -7 0 -7 -7z"/>
 <path d="M1600 2250 c0 -7 3 -10 7 -7 3 4 3 10 0 14 -4 3 -7 0 -7 -7z"/>
 <path d="M4232 2160 c0 -14 2 -19 5 -12 2 6 2 18 0 25 -3 6 -5 1 -5 -13z"/>
 <path d="M2885 2140 c3 -5 8 -10 11 -10 3 0 2 5 -1 10 -3 6 -8 10 -11 10 -3 0 -2 -4 1 -10z"/>
 <path d="M4220 2100 c0 -7 3 -10 7 -7 3 4 3 10 0 14 -4 3 -7 0 -7 -7z"/>
 <path d="M4210 2060 c0 -7 3 -10 7 -7 3 4 3 10 0 14 -4 3 -7 0 -7 -7z"/>
 <path d="M1883 2053 c4 -3 10 -3 14 0 3 4 0 7 -7 7 -7 0 -10 -3 -7 -7z"/>
 <path d="M4064 1718 c-4 -7 -3 -8 4 -4 12 7 16 16 8 16 -3 0 -8 -5 -12 -12z"/>
 <path d="M3969 1593 c-13 -16 -12 -17 4 -4 16 13 21 21 13 21 -2 0 -10 -8 -17 -17z"/>
 <path d="M3849 1473 c-13 -16 -12 -17 4 -4 16 13 21 21 13 21 -2 0 -10 -8 -17 -17z"/>
 <path d="M7678 1243 c39 -2 105 -2 145 0 39 1 7 3 -73 3 -80 0 -112 -2 -72 -3z"/>
 <path d="M1713 1213 c4 -3 10 -3 14 0 3 4 0 7 -7 7 -7 0 -10 -3 -7 -7z"/>
 <path d="M1843 1213 c4 -3 10 -3 14 0 3 4 0 7 -7 7 -7 0 -10 -3 -7 -7z"/>
 </g>

</svg>